<?xml version="1.0" encoding="UTF-8" standalone="no"?><!DOCTYPE svg PUBLIC "-//W3C//DTD SVG 1.1//EN" "http://www.w3.org/Graphics/SVG/1.1/DTD/svg11.dtd"><svg width="100%" height="100%" viewBox="0 0 2084 417" version="1.1" xmlns="http://www.w3.org/2000/svg" xmlns:xlink="http://www.w3.org/1999/xlink" xml:space="preserve" xmlns:serif="http://www.serif.com/" style="fill-rule:evenodd;clip-rule:evenodd;stroke-linejoin:round;stroke-miterlimit:2;"><g><g><path d="M871.408,212.967l0,78.713l-28.104,0l0,-121.867l28.104,0l0,15.358l1.442,0c5.492,-9.987 15.246,-17.779 32.858,-17.779c24.763,0 37.617,15.608 37.617,40.704l0,83.579l-28.104,0l0,-83.358c0,-14.358 -5.733,-23.871 -20.25,-23.871c-14.512,0 -23.562,10.492 -23.562,28.521Z" style="fill:#eb1700;"/><path d="M768.554,167.429c-37.375,0 -58.088,28.508 -58.088,63.337c0,34.85 20.708,63.358 58.088,63.358c37.375,0 58.087,-28.508 58.087,-63.358c0,-34.833 -20.712,-63.337 -58.087,-63.337Zm0,113.288c-18.321,0 -28.55,-17.783 -28.55,-49.975c0,-32.192 10.233,-49.975 28.55,-49.975c18.317,0 28.575,17.558 28.575,49.975c0,32.417 -10.254,49.975 -28.575,49.975Z" style="fill:#eb1700;"/><path d="M698.821,254.396c0,24.371 -17.396,39.729 -49.521,39.729l0,-0.029c-28.808,0 -47.833,-12.908 -49.275,-33.858l25.221,-7.317c2.608,20.225 10.925,28.267 27.125,28.267c15.004,0 23.563,-7.067 23.563,-19.504c0,-10.237 -5.708,-14.858 -18.317,-18.029l-23.808,-6.092c-15.246,-3.896 -28.808,-14.858 -28.808,-35.083c0,-23.871 19.025,-35.083 45.471,-35.083c26.446,0 42.862,11.938 45.717,28.992l-23.808,7.317c-1.167,-15.358 -9.975,-23.4 -24.271,-23.4c-12.121,0 -20.221,5.871 -20.221,15.608c0,7.792 5,13.158 16.417,16.083l22.858,5.842c16.192,4.142 31.658,13.658 31.658,36.558Z" style="fill:#eb1700;"/><path d="M514.788,212.937l0,78.742l-28.104,0l0,-121.867l28.104,0l0,15.358l1.442,0c5.492,-9.987 15.246,-17.779 32.858,-17.779c24.758,0 37.617,15.608 37.617,40.704l0,83.554l-28.104,0l0,-83.358c0,-14.358 -5.733,-23.871 -20.25,-23.871c-14.508,0 -23.562,10.488 -23.562,28.517Z" style="fill:#eb1700;"/><path d="M392.213,212.937l0,78.713l-0.029,0.029l-28.104,0l0,-170.583l28.104,0l0,64.075l1.442,0c5.492,-9.987 15.246,-17.779 32.858,-17.779c24.758,0 37.617,15.608 37.617,40.704l0,83.554l-28.104,0l0,-83.358c0,-14.358 -5.708,-23.871 -20.221,-23.871c-14.512,0 -23.562,10.488 -23.562,28.517Z" style="fill:#eb1700;"/><path d="M289.371,167.383c-37.375,0 -58.088,28.529 -58.088,63.358c0,34.829 20.708,63.358 58.088,63.358c37.354,0 58.088,-28.529 58.088,-63.358c0,-34.829 -20.733,-63.358 -58.088,-63.358Zm0,113.313c-18.362,0 -28.575,-17.783 -28.575,-49.975c0,-32.192 10.254,-49.975 28.575,-49.975c18.321,0 28.55,17.558 28.55,49.975c0.004,32.412 -10.229,49.975 -28.55,49.975Z" style="fill:#eb1700;"/><path d="M214.621,239.288c0,31.912 -15.467,56.287 -55.229,56.287c-39.763,0 -55.229,-24.371 -55.229,-56.287l0,-10.488l29.517,-7.542l0,23.4c0,22.175 7.608,35.083 25.713,35.083c18.1,0 25.712,-12.188 25.712,-32.667l0,-125.983l29.517,0l0,118.196Z" style="fill:#eb1700;"/></g><g><path d="M1907.167,291.654l0,0.029l0.025,-0.029l-0.025,0Z" style="fill:#eb1700;"/><path d="M1907.167,291.654l0,-76.954c0,-17.633 9.062,-27.892 23.596,-27.892c14.525,0 20.271,9.308 20.271,23.346l0,81.525l28.133,0l0,-81.742c0,-24.546 -12.871,-39.808 -37.662,-39.808c-17.629,0 -27.4,7.621 -32.892,17.387l-1.421,0l0,-15.021l-28.133,0l0,119.158l28.108,0Z" style="fill:#eb1700;"/><path d="M1804.196,170.154c-37.421,0 -58.154,27.904 -58.154,61.971c0,34.071 20.733,61.95 58.154,61.95c37.421,0 58.154,-27.879 58.154,-61.95c0,-34.067 -20.733,-61.971 -58.154,-61.971Zm0,110.808c-18.342,0 -28.596,-17.379 -28.596,-48.879c0,-31.479 10.254,-48.858 28.596,-48.858c18.342,0 28.596,17.158 28.596,48.858c0,31.7 -10.254,48.879 -28.596,48.879Z" style="fill:#eb1700;"/><path d="M1734.375,255.217c0,23.837 -17.417,38.858 -49.579,38.858l0.025,-0.029c-28.842,0 -47.892,-12.625 -49.333,-33.117l25.25,-7.158c2.612,19.783 10.938,27.646 27.158,27.646c15.021,0 23.592,-6.913 23.592,-19.075c0,-10.013 -5.712,-14.529 -18.342,-17.633l-23.838,-5.958c-15.267,-3.808 -28.842,-14.529 -28.842,-34.312c0,-23.346 19.05,-34.313 45.525,-34.313c26.475,0 42.912,11.675 45.771,28.354l-23.838,7.158c-1.171,-15.021 -9.987,-22.883 -24.3,-22.883c-12.162,0 -20.271,5.742 -20.271,15.267c0,7.621 5.008,12.871 16.433,15.729l22.883,5.713c16.221,4.054 31.704,13.362 31.704,35.754Z" style="fill:#eb1700;"/><path d="M1550.154,214.675l0,76.979l-0.029,-0.029l-28.138,0l0,-119.158l28.138,0l0,15.021l1.442,0c5.496,-9.771 15.267,-17.387 32.9,-17.387c24.792,0 37.662,15.267 37.662,39.808l0,81.742l-28.137,0l0,-81.525c0,-14.042 -5.717,-23.346 -20.246,-23.346c-14.529,0 -23.592,10.263 -23.592,27.896Z" style="fill:#eb1700;"/><path d="M1427.429,214.675l0,76.979l-0.029,-0.029l-28.137,0l0,-166.833l28.137,0l0,62.696l1.442,0c5.496,-9.771 15.267,-17.387 32.9,-17.387c24.792,0 37.662,15.267 37.662,39.808l0,81.742l-28.138,0l0,-81.525c0,-14.042 -5.712,-23.346 -20.246,-23.346c-14.529,0.004 -23.592,10.262 -23.592,27.896Z" style="fill:#eb1700;"/><path d="M1324.454,170.129c-37.4,0 -58.154,27.879 -58.154,61.95c0,34.071 20.754,61.971 58.154,61.971c37.421,0 58.154,-27.904 58.154,-61.971c0,-34.067 -20.733,-61.95 -58.154,-61.95Zm0,110.813c-18.342,0 -28.596,-17.404 -28.596,-48.879c0,-31.479 10.254,-48.858 28.596,-48.858c18.342,0 28.596,17.158 28.596,48.858c0,31.696 -10.254,48.879 -28.596,48.879Z" style="fill:#eb1700;"/><path d="M1249.629,240.442c0,31.213 -15.483,55.05 -55.292,55.05l0,0.025c-39.812,0 -55.292,-23.837 -55.292,-55.046l0,-10.258l29.55,-7.4l0,22.883c0,21.688 7.621,34.312 25.742,34.312c18.121,0 25.742,-11.917 25.742,-31.946l0,-123.212l29.55,0l0,115.592Z" style="fill:#eb1700;"/><path d="M1096.825,256.967l-0.021,-0.046c12.867,-15.258 20.242,-31.946 20.242,-46.467c0,-18.117 -12.154,-30.25 -31.208,-30.25c-10.008,0 -21.225,2.838 -28.596,5.696l-0.492,-0.938c18.142,-9.783 25.758,-18.833 25.758,-31.454c0,-18.142 -16.221,-32.417 -44.837,-32.417c-32.888,0 -49.083,18.342 -49.083,41.217c0,12.4 5.25,24.8 19.079,39.813l0.246,0.492c-23.346,11.217 -34.071,29.312 -34.071,47.921c0,24.554 18.833,45.037 47.9,45.037c16.667,0 36.212,-6.904 53.863,-19.304l14.321,15.483l37.421,0l0,-1.183l-30.521,-33.6Zm-59.825,-123.25l0.021,-0.021c14.075,0 22.408,8.108 22.408,22.875c0,13.583 -6.679,26.45 -23.146,33.867l-10.254,-11.438c-9.046,-10.008 -11.662,-16.221 -11.662,-23.592c0,-13.829 8.804,-21.692 22.633,-21.692Zm0.021,144.408c-22.875,0 -36.95,-18.588 -36.95,-38.358c0,-12.375 5.475,-23.837 14.542,-30.271l53.863,58.867c-10.008,5.967 -21.221,9.763 -31.454,9.763Zm52.433,-29.333l-46.713,-51.471c8.354,-3.35 16.442,-4.513 23.121,-4.513c19.304,0 31.208,11.192 31.208,30.496c0,8.575 -2.387,17.379 -7.617,25.488Z" style="fill:#eb1700;"/></g></g></svg>