<?xml version="1.0" encoding="UTF-8"?>
<svg id="Layer_1" data-name="Layer 1" xmlns="http://www.w3.org/2000/svg" viewBox="0 0 316.94 98.83">
  <defs>
    <style>
      .cls-1 {
        fill: none;
      }
    </style>
  </defs>
  <g>
    <path d="m62.69,45.26c0-8.31-6.7-15.04-14.95-15.04-2.49,0-4.85.61-6.91,1.71-.01,0-.03.01-.05.02-4.54,2.4-7.68,7.08-7.96,12.53-.01.25-.02.52-.02.77s.01.52.02.77c.26,5.34,3.32,9.96,7.72,12.4.09.05.18.1.28.15,2.07,1.09,4.42,1.71,6.92,1.71,8.26,0,14.95-6.74,14.95-15.03Z"/>
    <path d="m98.26,54.95c-1.14,6.4-4.34,12.45-8.67,17.03-6.36,6.71-15.33,10.57-24.55,10.57-3.77,0-9.8-1.06-11.21-6.07-.52-1.81-.99-5.74,2.23-8.6,3.8-3.37,9.07-3.94,12.63-5.86,8.49-4.59,10.66-12.33,10.6-17.35-.07-6.57-2.99-11.24-6.29-14.28-5.37-4.93-12.81-6.22-19.72-4.44-2.39.61-4.98,1.63-8.57,3.93-.13.08-.25.17-.41.17-.33,0-.6-.27-.6-.6,0-.09.02-.18.07-.27,5.71-8.08,15.14-12.23,23.74-12.23,14.4,0,23.12,9.35,26.47,14.53,4.19,6.49,5.72,15.34,4.28,23.44h0Z"/>
  </g>
  <g>
    <path d="m115.19,32.98h9.91c1.78,0,3.34.25,4.66.76,1.32.5,2.41,1.21,3.27,2.12.86.91,1.49,1.99,1.88,3.23.43,1.25.64,2.61.64,4.09s-.21,2.81-.64,4.09c-.4,1.25-1.02,2.34-1.88,3.28-.83.94-1.9,1.68-3.22,2.22-1.32.54-2.89.81-4.71.81h-5.8v12.27h-4.11v-32.87Zm9.56,17.57c2.35,0,4-.54,4.95-1.62.96-1.11,1.44-2.93,1.44-5.45v-.61c0-2.46-.5-4.16-1.49-5.1-.99-.98-2.66-1.46-5-1.46h-5.35v14.24h5.45Z"/>
    <path d="m155.03,39.49h3.82v26.36h-2.18l-1.54-3.13-2.18,2.63c-.56.27-1.26.5-2.08.71-.82.24-1.78.35-2.87.35-2.05,0-3.72-.64-5-1.92-1.26-1.31-1.88-3.45-1.88-6.41v-18.58h3.81v19.19c0,1.78.36,3.01,1.09,3.69.76.67,1.73,1.01,2.92,1.01,1.35,0,2.48-.19,3.37-.56.92-.4,1.83-.96,2.72-1.67v-21.66Z"/>
    <path d="m185.94,40.15c.5-.27,1.14-.52,1.93-.76.79-.27,1.7-.4,2.73-.4,2.11,0,3.77.64,4.95,1.92,1.22,1.28,1.83,3.4,1.83,6.36v18.58h-3.81v-19.19c0-1.72-.35-2.9-1.04-3.53-.66-.64-1.62-.96-2.87-.96s-2.26.22-3.12.66c-.82.4-1.7.94-2.63,1.62v21.41h-3.81v-19.19c0-1.72-.36-2.9-1.09-3.53-.73-.64-1.67-.96-2.82-.96s-2.23.2-3.12.61c-.86.37-1.75.89-2.68,1.57v21.51h-3.81v-26.36h2.18l1.49,3.23,2.23-2.58c.53-.27,1.17-.52,1.93-.76.79-.27,1.72-.4,2.77-.4.96,0,1.78.1,2.48.3.73.2,1.4.49,2.03.86l1.78,2.78,2.48-2.78Z"/>
    <path d="m217.02,47.52c0-.74-.07-1.43-.2-2.07-.13-.64-.36-1.18-.69-1.62-.3-.47-.74-.84-1.34-1.11-.56-.27-1.29-.4-2.18-.4-1.26,0-2.49.17-3.72.5-1.19.3-2.46.69-3.82,1.16l-.59-3.03c1.19-.54,2.44-.99,3.77-1.36,1.32-.4,2.82-.61,4.51-.61,2.87,0,4.92.79,6.14,2.37,1.26,1.55,1.88,4.06,1.88,7.52v12.88c0,.74.13,1.25.4,1.51.26.24.69.35,1.29.35h.99l.1,2.07c-.23.17-.56.32-.99.45-.43.17-.94.25-1.54.25-.69,0-1.39-.13-2.08-.4l-1.73-2.83-2.28,2.58c-.5.24-1.11.42-1.83.56-.69.17-1.47.25-2.33.25-1.02,0-2-.13-2.92-.4-.89-.27-1.68-.69-2.38-1.26-.66-.61-1.19-1.38-1.59-2.32-.4-.98-.59-2.17-.59-3.59,0-1.31.18-2.44.54-3.38.36-.98.91-1.78,1.63-2.42.76-.64,1.72-1.14,2.87-1.51,1.19-.37,2.58-.64,4.16-.81l4.51-.4v-2.93Zm0,5.35l-4.26.45c-2.05.24-3.52.74-4.41,1.51-.89.74-1.34,2.02-1.34,3.84v.35c0,1.65.38,2.83,1.14,3.53.79.71,1.98,1.06,3.57,1.06,1.39,0,2.48-.25,3.27-.76.83-.5,1.5-1.08,2.03-1.72v-8.28Z"/>
    <path d="m234.48,66.56c-1.72,0-3.19-.19-4.41-.56-1.19-.34-2.16-.71-2.92-1.11l.54-2.93c.86.37,1.83.72,2.92,1.06,1.12.34,2.33.5,3.62.5,1.59,0,2.82-.32,3.72-.96.89-.67,1.34-1.85,1.34-3.53,0-.77-.08-1.41-.25-1.92-.17-.5-.46-.93-.89-1.26-.43-.37-1.02-.69-1.78-.96-.76-.3-1.75-.62-2.97-.96-.93-.27-1.78-.57-2.58-.91-.76-.37-1.42-.84-1.98-1.41-.53-.57-.96-1.26-1.29-2.07-.3-.84-.45-1.85-.45-3.03,0-2.52.73-4.41,2.18-5.66,1.49-1.25,3.47-1.87,5.95-1.87,1.52,0,2.84.15,3.96.45,1.16.3,2.11.66,2.87,1.06l-.6,2.88c-.5-.17-.97-.32-1.44-.45-.43-.17-.88-.3-1.34-.4-.46-.1-.97-.19-1.54-.25-.53-.07-1.12-.1-1.78-.1-1.55,0-2.73.29-3.52.86-.79.54-1.19,1.63-1.19,3.28,0,.74.1,1.35.3,1.82s.5.88.89,1.21c.43.3.99.57,1.68.81.69.24,1.54.49,2.53.76,1.16.34,2.16.71,3.02,1.11.86.4,1.57.91,2.13,1.51.56.61.99,1.35,1.29,2.22.3.88.45,1.92.45,3.13,0,2.22-.71,4.06-2.13,5.5-1.39,1.45-3.5,2.17-6.34,2.17Z"/>
    <path d="m251.49,65.85h-5.45l10.5-32.87h5.95l10.31,32.87h-6.59l-1.63-5.76h-11.35l-1.73,5.76Zm8.77-20.81l-1.14-6.21-1.39,6.21-3.27,10.81h8.92l-3.12-10.81Z"/>
    <path d="m277.85,32.98h6.29v32.87h-6.29v-32.87Z"/>
  </g>
  <rect class="cls-1" width="316.94" height="98.83"/>
</svg>